<?xml version="1.0" standalone="no"?>
<!DOCTYPE svg PUBLIC "-//W3C//DTD SVG 20010904//EN"
 "http://www.w3.org/TR/2001/REC-SVG-20010904/DTD/svg10.dtd">
<svg version="1.0" xmlns="http://www.w3.org/2000/svg"
 width="512.000000pt" height="512.000000pt" viewBox="0 0 512.000000 512.000000"
 preserveAspectRatio="xMidYMid meet">

<g transform="translate(0.000000,512.000000) scale(0.100000,-0.100000)"
fill="#000000" stroke="none">
<path d="M1128 4948 c-28 -22 -529 -631 -539 -656 -14 -35 -12 -3557 2 -3623
9 -39 21 -62 53 -93 53 -53 98 -66 234 -66 l110 0 4 -109 c3 -103 5 -112 33
-152 17 -23 48 -52 70 -63 l40 -21 1615 -3 c1808 -3 1667 -8 1734 70 23 27 39
58 46 92 7 35 9 683 8 2091 l-3 2040 -22 42 c-25 47 -71 84 -122 102 -19 6
-85 11 -146 11 l-113 0 -4 109 c-3 103 -5 112 -33 152 -17 23 -48 52 -70 63
-40 21 -42 21 -1460 24 -1131 2 -1424 0 -1437 -10z m2840 -150 c17 -17 17
-4109 0 -4126 -9 -9 -380 -12 -1607 -12 -1470 0 -1596 1 -1613 17 -17 15 -18
84 -18 1770 l0 1753 185 0 c204 0 230 6 287 67 44 47 48 70 48 314 l0 229
1353 0 c1039 0 1356 -3 1365 -12z m-2858 -258 c0 -208 7 -200 -166 -200 -77 0
-124 4 -122 10 3 9 281 350 286 350 1 0 2 -72 2 -160z m3262 -97 c17 -15 18
-93 18 -2059 0 -1844 -2 -2044 -16 -2058 -14 -14 -174 -16 -1613 -16 -1229 0
-1600 3 -1609 12 -8 8 -12 45 -12 100 l0 88 1403 0 c947 0 1414 4 1440 11 49
13 105 63 128 114 18 38 19 124 19 1933 l0 1892 112 0 c90 0 115 -3 130 -17z"/>
<path d="M2340 4263 c-23 -30 -21 -65 7 -95 15 -17 59 -18 645 -18 615 0 628
0 648 20 11 11 20 33 20 50 0 17 -9 39 -20 50 -20 20 -33 20 -649 20 l-630 0
-21 -27z"/>
<path d="M1163 3680 c-47 -19 -56 -78 -18 -115 l24 -25 1219 0 c1218 0 1219 0
1246 21 36 28 36 80 0 108 -27 21 -27 21 -1238 20 -672 0 -1221 -4 -1233 -9z"/>
<path d="M1071 3054 c-12 -15 -21 -34 -21 -44 0 -10 9 -29 21 -44 l20 -26
1265 0 c1251 0 1264 0 1284 20 26 26 26 74 0 100 -20 20 -33 20 -1284 20
l-1265 0 -20 -26z"/>
<path d="M2823 2819 c-75 -40 -80 -41 -148 -35 -95 9 -143 -15 -203 -101 -39
-56 -49 -64 -112 -88 -97 -37 -140 -100 -140 -203 0 -26 -11 -45 -50 -86 -50
-53 -80 -108 -80 -147 0 -13 10 -53 22 -90 l21 -67 -21 -74 c-12 -40 -22 -80
-22 -88 0 -43 25 -91 73 -142 50 -53 55 -62 60 -118 8 -74 26 -110 72 -147 19
-15 35 -31 35 -34 0 -4 -49 -93 -110 -199 -60 -106 -110 -201 -110 -212 0 -30
19 -58 46 -68 18 -7 51 -4 114 10 50 11 96 20 104 20 9 0 26 -34 46 -95 43
-129 88 -164 143 -112 14 12 75 112 137 222 63 110 115 202 117 204 2 3 19 -3
38 -12 44 -21 104 -22 152 -2 30 13 39 13 48 3 7 -7 63 -102 124 -210 62 -109
122 -205 134 -213 55 -38 94 -5 132 115 16 51 35 95 42 97 7 3 55 -4 107 -16
68 -15 102 -18 120 -11 27 10 46 38 46 67 0 10 -51 108 -114 217 l-114 200 31
20 c49 34 66 66 81 149 12 71 17 81 64 131 64 68 78 111 57 187 -27 96 -28
115 -9 170 20 62 22 135 4 170 -7 13 -34 46 -60 74 -42 44 -48 57 -55 110 -13
108 -53 156 -153 186 -43 12 -56 25 -112 106 -45 64 -79 78 -182 76 -82 -2
-91 -1 -135 27 -49 31 -101 50 -140 50 -12 0 -57 -18 -100 -41z m189 -146 c61
-37 65 -38 150 -36 l88 3 39 -58 c49 -72 53 -76 137 -110 l69 -29 8 -62 c9
-77 25 -109 85 -173 l45 -48 -23 -76 c-23 -80 -23 -104 7 -201 l17 -53 -56
-58 c-45 -47 -58 -68 -67 -110 -6 -29 -11 -63 -11 -76 0 -30 -12 -40 -81 -65
-58 -22 -100 -60 -142 -127 l-26 -42 -83 5 c-82 5 -84 5 -161 -36 l-78 -42
-62 38 c-60 37 -65 38 -156 38 l-95 0 -32 50 c-45 70 -73 94 -146 120 l-63 23
-12 70 c-14 86 -23 104 -80 164 -50 50 -49 44 -19 153 15 57 15 63 -5 142
l-21 82 50 58 c58 66 67 87 77 166 8 63 13 69 70 87 67 21 101 48 142 111 l38
61 66 -6 c75 -7 142 10 199 49 19 13 43 24 52 24 9 1 45 -16 80 -36z m-523
-1389 c30 -43 71 -66 133 -74 l48 -5 -59 -103 c-32 -57 -63 -108 -68 -113 -7
-7 -16 5 -27 37 -28 82 -60 99 -145 74 -19 -5 -36 -8 -39 -6 -4 5 121 226 128
226 3 0 16 -16 29 -36z m989 -76 c34 -61 61 -112 60 -113 -2 -1 -32 2 -67 8
-63 11 -64 11 -87 -16 -13 -15 -29 -45 -35 -67 -7 -22 -15 -40 -18 -40 -5 0
-117 193 -129 222 -2 4 16 8 40 8 51 0 94 24 134 74 16 20 31 36 34 36 3 0 33
-51 68 -112z"/>
<path d="M2780 2521 c-188 -61 -327 -205 -375 -388 -19 -73 -19 -202 0 -273
63 -237 286 -410 530 -410 295 0 545 250 545 545 0 240 -158 454 -389 525 -83
26 -233 26 -311 1z m303 -151 c39 -15 79 -41 121 -81 210 -196 158 -528 -103
-656 -51 -25 -66 -28 -166 -28 -98 0 -116 3 -167 27 -115 53 -202 166 -228
293 -40 194 80 391 276 456 75 25 184 20 267 -11z"/>
<path d="M3077 2176 c-14 -6 -61 -52 -105 -103 l-79 -91 -49 39 c-60 48 -105
50 -137 7 -32 -42 -17 -69 81 -148 95 -77 124 -85 165 -47 53 48 217 248 218
264 5 66 -40 102 -94 79z"/>
<path d="M1093 2470 c-47 -19 -56 -78 -18 -115 l24 -25 426 0 c281 0 433 4
446 11 48 25 44 105 -7 128 -30 13 -837 15 -871 1z"/>
<path d="M1071 1844 c-26 -34 -27 -68 -1 -94 19 -19 33 -20 410 -20 377 0 391
1 410 20 26 26 25 60 -1 94 l-20 26 -389 0 -389 0 -20 -26z"/>
<path d="M1094 1256 c-50 -22 -59 -72 -19 -111 l24 -25 429 0 c419 0 430 0
456 21 31 25 34 66 7 100 l-19 24 -424 2 c-340 2 -429 0 -454 -11z"/>
</g>
</svg>
