<?xml version="1.0" standalone="no"?>
<!DOCTYPE svg PUBLIC "-//W3C//DTD SVG 20010904//EN"
 "http://www.w3.org/TR/2001/REC-SVG-20010904/DTD/svg10.dtd">
<svg version="1.0" xmlns="http://www.w3.org/2000/svg"
 width="512.000000pt" height="512.000000pt" viewBox="0 0 512.000000 512.000000"
 preserveAspectRatio="xMidYMid meet">

<g transform="translate(0.000000,512.000000) scale(0.100000,-0.100000)"
fill="#000000" stroke="none">
<path d="M1685 4714 c-467 -223 -858 -414 -867 -426 -16 -18 -18 -47 -18 -283
l0 -263 -30 -12 c-42 -17 -104 -90 -118 -138 -8 -25 -12 -122 -12 -271 l0
-232 25 -24 c24 -25 26 -25 215 -25 189 0 191 0 215 25 l25 24 0 232 c0 149
-4 246 -12 271 -14 48 -76 121 -118 138 l-30 12 0 185 c0 105 4 183 9 181 5
-1 95 -43 200 -93 l190 -90 1 -500 0 -500 79 -75 c179 -170 430 -283 757 -341
172 -31 529 -34 699 -6 353 58 647 193 819 377 l46 49 0 498 1 498 265 125
c147 69 272 134 280 145 19 27 18 69 -3 93 -22 26 -1715 832 -1746 831 -12 0
-404 -183 -872 -405z m1616 -116 c407 -193 739 -354 739 -358 0 -4 -333 -165
-740 -359 l-740 -352 -740 352 c-407 194 -740 356 -740 359 0 5 1466 709 1479
710 2 0 336 -158 742 -352z m-1252 -1003 c271 -129 501 -235 511 -235 9 0 245
108 522 240 278 132 508 240 512 240 3 0 6 -84 6 -188 l0 -187 -45 -52 c-96
-110 -292 -232 -470 -291 -192 -65 -368 -87 -621 -78 l-182 7 -21 -27 c-27
-35 -27 -66 2 -100 20 -23 34 -27 117 -36 129 -14 370 -4 511 21 232 40 454
132 622 256 l87 65 0 -119 0 -119 -55 -49 c-162 -145 -441 -253 -745 -288
-474 -56 -971 61 -1225 288 l-55 49 0 120 0 121 33 -27 c78 -63 182 -126 209
-126 58 0 100 79 66 122 -7 8 -48 39 -90 67 -43 28 -109 83 -148 122 l-70 70
0 190 c0 178 1 190 18 185 10 -3 240 -112 511 -241z m-1114 -20 c25 -24 25
-27 25 -200 l0 -175 -80 0 -80 0 0 175 c0 173 0 176 25 200 15 16 36 25 55 25
19 0 40 -9 55 -25z"/>
<path d="M1986 3099 c-20 -16 -26 -29 -26 -59 0 -30 6 -43 26 -59 15 -12 37
-21 49 -21 12 0 34 9 49 21 20 16 26 29 26 59 0 30 -6 43 -26 59 -15 12 -37
21 -49 21 -12 0 -34 -9 -49 -21z"/>
<path d="M1102 2499 c-64 -12 -140 -58 -186 -111 l-40 -47 -48 45 c-76 71
-145 98 -248 99 -71 0 -94 -4 -142 -27 -70 -32 -133 -96 -167 -168 -22 -46
-26 -69 -26 -140 0 -75 4 -93 30 -145 49 -97 825 -1143 900 -1213 68 -65 173
-122 265 -147 40 -11 221 -22 660 -40 333 -13 638 -28 678 -33 81 -11 173 -51
236 -104 22 -18 111 -128 198 -245 165 -223 182 -238 234 -214 14 6 222 156
462 333 240 177 452 332 471 345 46 31 111 31 145 0 31 -28 290 -405 323 -469
13 -26 27 -77 32 -114 6 -52 13 -71 31 -86 56 -45 130 -3 130 74 0 55 -23 145
-51 201 -33 64 -309 466 -348 505 -19 19 -54 43 -78 54 -43 19 -139 27 -179
14 -17 -5 -57 44 -279 346 -178 243 -285 380 -344 438 -184 183 -415 296 -674
330 -52 7 -277 10 -610 8 l-528 -3 -30 96 c-17 53 -44 120 -60 148 -69 121
-231 181 -365 135 l-48 -16 -34 41 c-43 52 -107 90 -181 107 -62 15 -68 15
-129 3z m138 -174 c57 -30 70 -58 176 -386 57 -177 104 -327 104 -332 0 -15
-92 1 -117 21 -13 9 -108 134 -213 277 -204 280 -206 284 -171 354 41 79 138
108 221 66z m-574 -20 c47 -23 70 -51 320 -392 148 -201 282 -380 299 -396 57
-57 104 -70 272 -75 135 -4 153 -6 158 -22 10 -30 93 -100 152 -127 66 -30
152 -37 603 -48 273 -6 276 -6 303 15 24 19 28 29 25 63 -6 75 -1 74 -437 87
-428 12 -437 13 -498 83 -30 35 -53 90 -53 131 0 75 74 175 147 196 27 8 197
10 593 8 531 -4 558 -5 632 -25 188 -53 348 -146 474 -275 74 -75 556 -721
558 -747 1 -11 -327 -259 -755 -571 l-25 -19 -104 142 c-147 201 -181 240
-265 296 -141 94 -196 106 -590 121 -722 28 -963 40 -1000 51 -71 20 -156 69
-204 117 -58 59 -836 1119 -856 1166 -19 45 -19 87 0 133 21 50 42 72 90 94
55 25 102 24 161 -6z m991 -101 c51 -25 77 -67 114 -182 l32 -103 -43 -42
c-43 -43 -90 -123 -90 -154 0 -41 -22 15 -90 227 -40 124 -73 229 -73 234 -3
15 45 36 81 36 19 0 50 -7 69 -16z"/>
</g>
</svg>
