<?xml version="1.0" standalone="no"?>
<!DOCTYPE svg PUBLIC "-//W3C//DTD SVG 20010904//EN"
 "http://www.w3.org/TR/2001/REC-SVG-20010904/DTD/svg10.dtd">
<svg version="1.0" xmlns="http://www.w3.org/2000/svg"
 width="440.000000pt" height="455.000000pt" viewBox="0 0 440.000000 455.000000"
 preserveAspectRatio="xMidYMid meet">

<g transform="translate(0.000000,455.000000) scale(0.100000,-0.100000)"
fill="#fff" stroke="none">
<path d="M167 4536 c-121 -44 -192 -178 -157 -301 16 -56 75 -125 136 -159
116 -65 272 0 329 137 19 47 19 137 -1 185 -47 114 -191 179 -307 138z m129
-132 c41 -20 64 -59 64 -110 0 -52 -53 -104 -106 -104 -88 0 -146 81 -111 155
18 37 69 75 100 75 11 0 34 -7 53 -16z"/>
<path d="M4046 4520 c-55 -28 -82 -55 -116 -119 -37 -67 -39 -128 -9 -192 60
-125 193 -187 312 -145 121 44 192 178 157 301 -16 56 -81 132 -135 156 -55
25 -157 25 -209 -1z m170 -129 c35 -21 60 -78 50 -115 -10 -39 -45 -75 -85
-87 -73 -22 -141 34 -141 117 0 28 8 44 34 70 40 40 92 46 142 15z"/>
<path d="M2844 4357 c-3 -8 -4 -39 -2 -68 l3 -54 65 0 65 0 0 65 0 65 -63 3
c-47 2 -64 -1 -68 -11z"/>
<path d="M3110 4300 l0 -70 65 0 65 0 0 70 0 70 -65 0 -65 0 0 -70z"/>
<path d="M3374 4357 c-3 -8 -4 -39 -2 -68 l3 -54 65 0 65 0 0 65 0 65 -63 3
c-47 2 -64 -1 -68 -11z"/>
<path d="M3640 4300 l0 -70 65 0 65 0 0 70 0 70 -65 0 -65 0 0 -70z"/>
<path d="M2750 4125 l0 -65 65 0 65 0 0 65 0 65 -65 0 -65 0 0 -65z"/>
<path d="M1965 4171 c-157 -17 -270 -140 -284 -308 l-6 -76 -78 -34 c-44 -18
-82 -33 -86 -33 -3 0 -29 19 -56 41 -28 23 -74 53 -103 66 -46 22 -65 25 -135
21 -116 -5 -152 -26 -309 -176 -188 -182 -252 -259 -272 -330 -28 -101 -15
-192 38 -273 l26 -39 -39 0 -39 0 -4 -65 -3 -65 57 0 58 0 -19 -47 -19 -48
-81 -12 c-91 -12 -172 -47 -213 -90 -15 -15 -43 -55 -62 -87 l-36 -60 0 -286
0 -286 36 -60 c69 -116 133 -157 270 -177 l86 -13 33 -80 32 -81 -45 -54 c-68
-82 -87 -129 -87 -224 0 -130 21 -164 233 -375 207 -206 234 -223 359 -228 70
-4 89 -1 135 21 29 13 75 43 103 66 27 22 52 41 55 41 3 0 41 -15 85 -34 l80
-33 6 -75 c11 -133 72 -224 191 -284 l68 -34 265 0 266 0 59 30 c32 16 75 44
94 61 52 46 95 139 104 228 l7 75 83 33 84 34 46 -40 c92 -76 175 -103 279
-90 81 10 131 41 253 156 163 154 266 276 287 337 34 102 16 217 -47 306 l-21
30 35 0 36 0 0 65 0 65 -40 0 c-44 0 -47 5 -26 54 14 33 16 34 88 41 134 13
228 77 288 194 l30 60 0 271 0 271 -26 52 c-62 123 -145 181 -287 201 l-80 11
-35 82 -35 83 43 46 c87 95 116 222 77 340 -21 62 -125 184 -288 337 -139 131
-175 151 -286 155 -71 4 -89 1 -138 -22 -32 -14 -79 -44 -106 -67 l-50 -42
-82 35 -82 35 -8 74 c-15 141 -81 234 -207 293 -54 25 -59 26 -275 24 -121 0
-247 -4 -280 -7z m482 -278 c14 -21 19 -54 21 -155 l4 -127 141 -59 c78 -33
188 -79 245 -102 l103 -43 52 49 c104 100 147 134 168 134 21 0 230 -197 311
-292 48 -58 48 -59 -70 -180 l-85 -87 104 -248 104 -248 132 -5 c186 -7 173
13 173 -264 l0 -224 -24 -16 c-18 -11 -56 -16 -153 -18 l-128 -3 -104 -248
-104 -248 85 -87 c118 -121 118 -122 69 -180 -84 -100 -288 -292 -309 -292
-22 0 -64 33 -163 128 l-57 54 -223 -92 c-123 -51 -233 -97 -245 -102 -20 -10
-22 -18 -26 -143 -5 -191 14 -178 -265 -173 -196 3 -225 6 -240 21 -15 15 -19
40 -21 151 l-4 134 -242 101 c-133 56 -246 101 -251 101 -5 0 -50 -40 -101
-90 -64 -63 -98 -90 -116 -90 -18 0 -65 42 -186 163 -89 90 -162 171 -162 181
0 9 43 61 95 115 l95 98 -104 249 -103 249 -135 5 c-94 3 -140 9 -152 19 -14
12 -16 42 -16 241 0 199 2 229 16 241 12 10 58 16 152 19 l135 5 103 249 104
249 -95 98 c-52 54 -95 106 -95 116 0 9 73 91 163 180 118 118 169 163 186
163 16 0 52 -28 115 -90 51 -49 96 -90 102 -90 8 0 128 49 416 169 l76 32 4
133 c2 92 7 138 16 149 16 19 57 23 294 25 l178 2 17 -27z"/>
<path d="M1970 3471 c-193 -42 -353 -115 -504 -227 -367 -276 -553 -764 -460
-1211 104 -504 495 -880 1008 -969 132 -23 348 -15 477 19 238 62 402 155 576
328 341 337 448 854 272 1306 -40 102 -119 239 -187 323 -156 194 -398 349
-650 416 -134 36 -403 43 -532 15z m299 -160 c49 -25 104 -82 146 -151 43 -71
100 -208 91 -218 -10 -10 -440 -16 -532 -7 -60 5 -74 10 -74 24 0 30 108 235
149 282 44 51 110 89 154 89 15 0 45 -9 66 -19z m-409 -46 c0 -3 -13 -29 -29
-58 -16 -28 -46 -92 -66 -142 -21 -49 -38 -91 -39 -92 -3 -4 -238 56 -244 62
-14 14 149 131 253 183 101 50 125 59 125 47z m786 -34 c128 -60 290 -178 271
-197 -12 -12 -231 -64 -238 -56 -4 4 -19 38 -33 76 -14 37 -43 101 -65 142
-21 41 -34 74 -29 74 6 0 48 -18 94 -39z m-1151 -370 c61 -17 128 -35 151 -41
l41 -10 -12 -72 c-13 -75 -34 -258 -38 -338 l-2 -45 -244 -3 -244 -2 7 61 c15
130 82 311 160 433 27 42 41 56 54 52 9 -3 67 -19 127 -35z m1591 -8 c46 -70
94 -168 120 -247 22 -63 54 -208 54 -242 0 -12 -39 -14 -242 -12 l-243 3 -17
174 c-9 96 -22 197 -28 224 -6 27 -8 52 -6 55 3 2 63 19 133 38 70 18 139 37
153 43 40 16 44 14 76 -36z m-976 -90 c76 -3 202 -1 289 6 84 7 155 10 158 7
8 -7 40 -234 48 -333 l7 -93 -408 0 -407 0 7 98 c7 96 32 294 42 321 3 11 18
12 67 7 34 -3 123 -9 197 -13z m-473 -623 c4 -79 25 -263 37 -336 l13 -71
-152 -41 c-83 -22 -158 -44 -167 -47 -21 -8 -106 128 -149 239 -32 83 -68 231
-69 279 l0 27 243 -2 242 -3 2 -45z m967 -37 c-8 -104 -39 -332 -47 -339 -3
-3 -68 0 -144 7 -132 11 -389 8 -509 -7 -45 -6 -53 -4 -58 12 -11 36 -35 215
-42 314 l-7 100 407 0 407 0 -7 -87z m651 40 c-21 -148 -76 -302 -155 -434
-30 -49 -47 -68 -58 -64 -8 3 -83 24 -165 46 -83 22 -152 41 -153 42 -2 1 6
57 16 125 10 67 22 166 26 220 3 53 9 100 11 105 2 4 112 7 244 7 l240 0 -6
-47z m-916 -533 c90 -5 166 -12 169 -15 8 -8 -55 -150 -96 -215 -64 -103 -146
-170 -208 -170 -80 0 -172 88 -243 234 -28 55 -53 113 -56 128 l-7 26 79 7
c43 3 89 7 103 9 49 6 97 5 259 -4z m-580 -122 c18 -46 49 -112 68 -147 18
-35 32 -65 29 -68 -9 -9 -177 76 -248 126 -95 67 -134 99 -127 106 6 5 215 63
235 64 5 1 25 -36 43 -81z m1069 46 c52 -13 96 -24 99 -24 14 0 -29 -38 -101
-92 -72 -54 -246 -148 -273 -148 -6 0 7 33 28 73 33 63 51 104 90 205 10 25 3
26 157 -14z"/>
<path d="M2750 3865 l0 -65 43 0 c23 0 52 -3 65 -6 21 -6 22 -4 22 65 l0 71
-65 0 -65 0 0 -65z"/>
<path d="M180 3855 l0 -65 65 0 65 0 0 65 0 65 -65 0 -65 0 0 -65z"/>
<path d="M180 3590 l0 -70 65 0 65 0 0 70 0 70 -65 0 -65 0 0 -70z"/>
<path d="M180 3325 l0 -65 65 0 65 0 0 65 0 65 -65 0 -65 0 0 -65z"/>
<path d="M180 3055 l0 -65 65 0 65 0 0 65 0 65 -65 0 -65 0 0 -65z"/>
<path d="M350 2965 l0 -65 65 0 65 0 0 65 0 65 -65 0 -65 0 0 -65z"/>
<path d="M3910 1585 l0 -65 65 0 65 0 0 65 0 65 -65 0 -65 0 0 -65z"/>
<path d="M4090 1500 l0 -71 63 3 62 3 3 68 3 67 -66 0 -65 0 0 -70z"/>
<path d="M4090 1235 l0 -65 65 0 65 0 0 65 0 65 -65 0 -65 0 0 -65z"/>
<path d="M4090 970 l0 -70 65 0 65 0 0 70 0 70 -65 0 -65 0 0 -70z"/>
<path d="M4090 705 l0 -65 65 0 65 0 0 65 0 65 -65 0 -65 0 0 -65z"/>
<path d="M1520 685 l0 -65 65 0 65 0 0 65 0 65 -65 0 -65 0 0 -65z"/>
<path d="M4090 500 c0 -5 -17 -17 -37 -25 -132 -55 -187 -217 -118 -343 114
-209 420 -152 460 85 15 92 -54 220 -138 254 -17 7 -36 19 -40 26 -9 15 -127
18 -127 3z m120 -157 c35 -20 50 -52 50 -102 0 -102 -136 -146 -200 -64 -23
30 -26 95 -6 132 27 49 103 66 156 34z"/>
<path d="M145 471 c-51 -23 -118 -98 -133 -149 -56 -187 116 -364 303 -312 56
16 139 88 157 136 6 18 16 34 20 34 4 0 8 26 8 59 0 94 -56 183 -142 227 -60
30 -153 32 -213 5z m181 -145 c26 -26 34 -42 34 -70 0 -52 -23 -90 -66 -111
-31 -14 -43 -15 -75 -6 -66 20 -100 82 -79 146 15 45 61 75 114 75 30 0 45 -7
72 -34z"/>
<path d="M1520 420 l0 -71 63 3 62 3 3 68 3 67 -66 0 -65 0 0 -70z"/>
<path d="M630 245 l0 -65 70 0 70 0 0 65 0 65 -70 0 -70 0 0 -65z"/>
<path d="M900 245 l0 -65 65 0 65 0 0 65 0 65 -65 0 -65 0 0 -65z"/>
<path d="M1160 245 l0 -65 70 0 70 0 0 65 0 65 -70 0 -70 0 0 -65z"/>
<path d="M1430 245 l0 -65 65 0 65 0 0 65 0 65 -65 0 -65 0 0 -65z"/>
</g>
</svg>
