<?xml version="1.0" standalone="no"?>
<!DOCTYPE svg PUBLIC "-//W3C//DTD SVG 20010904//EN"
 "http://www.w3.org/TR/2001/REC-SVG-20010904/DTD/svg10.dtd">
<svg version="1.0" xmlns="http://www.w3.org/2000/svg"
 width="512.000000pt" height="512.000000pt" viewBox="0 0 512.000000 512.000000"
 preserveAspectRatio="xMidYMid meet">

<g transform="translate(0.000000,512.000000) scale(0.100000,-0.100000)"
fill="#000000" stroke="none">
<path d="M687 5109 c-104 -25 -212 -111 -260 -209 -16 -32 -31 -86 -37 -130
-13 -102 -13 -4318 0 -4420 19 -142 99 -252 228 -313 l67 -32 412 -3 413 -3
25 25 c32 32 32 70 0 101 l-24 25 -261 0 -260 0 0 2410 0 2410 1524 0 c1213 0
1526 -3 1534 -13 6 -7 12 -95 14 -219 3 -198 4 -208 25 -229 29 -29 77 -29
106 0 21 21 22 28 22 244 0 217 -1 223 -24 264 -14 24 -42 55 -64 70 l-40 28
-1681 2 c-954 0 -1697 -3 -1719 -8z m153 -2549 l0 -2410 -49 0 c-98 0 -185 51
-225 132 l-26 52 0 2226 0 2226 25 51 c42 84 121 131 223 132 l52 1 0 -2410z"/>
<path d="M4089 4261 l-24 -19 -3 -2033 c-2 -1471 -5 -2036 -13 -2046 -9 -11
-206 -13 -1119 -13 -1105 0 -1107 0 -1134 -21 -36 -28 -36 -80 1 -108 l26 -21
1132 2 1132 3 40 28 c22 15 50 46 64 70 l24 42 3 878 3 877 202 1 c221 0 257
7 291 52 20 27 21 41 21 221 0 286 11 276 -300 276 l-215 0 0 868 c0 568 -4
880 -10 904 -17 59 -74 77 -121 39z m491 -2086 l0 -125 -180 0 -180 0 0 125 0
125 180 0 180 0 0 -125z"/>
<path d="M1872 3741 c-688 -172 -672 -167 -672 -243 0 -52 14 -77 56 -94 l34
-14 0 -353 0 -353 -29 -17 c-43 -25 -89 -82 -100 -124 -6 -21 -11 -111 -11
-199 0 -148 2 -163 21 -188 l20 -26 175 0 c230 0 214 -16 214 218 0 173 -1
180 -27 231 -19 38 -38 61 -69 80 l-43 26 -1 334 0 334 32 -7 c18 -3 49 -11
70 -17 l38 -10 0 -289 c0 -285 0 -289 23 -315 19 -22 92 -46 482 -160 253 -74
466 -135 473 -135 7 0 160 43 340 96 180 52 387 113 461 135 74 21 143 47 153
56 17 15 18 39 18 313 l0 298 170 42 c151 38 173 46 195 72 35 41 34 91 -2
127 -25 25 -90 43 -658 184 -462 116 -645 157 -685 156 -35 0 -286 -59 -678
-158z m1225 -118 c358 -89 501 -129 487 -135 -47 -20 -990 -248 -1025 -248
-22 0 -267 57 -547 127 l-507 127 505 127 c278 70 522 128 543 128 20 1 265
-56 544 -126z m-977 -438 c251 -63 398 -95 435 -95 36 0 184 32 423 90 202 50
375 93 385 96 16 5 17 -10 17 -229 l0 -234 -352 -103 c-194 -56 -379 -111
-410 -120 l-57 -18 -391 114 c-214 63 -401 119 -415 124 l-25 10 0 230 c0 126
2 230 5 230 3 0 176 -43 385 -95z m-727 -646 c35 -19 37 -27 37 -146 l0 -113
-65 0 -65 0 0 110 c0 104 1 112 25 135 27 28 37 30 68 14z"/>
<path d="M1741 2002 c-66 -35 -71 -58 -71 -317 0 -260 6 -285 70 -317 32 -17
92 -18 800 -18 741 0 766 1 797 20 60 36 63 53 63 317 0 221 -2 240 -20 271
-39 64 -12 62 -847 62 -715 0 -760 -1 -792 -18z m1509 -317 l0 -185 -715 0
-715 0 0 185 0 185 715 0 715 0 0 -185z"/>
<path d="M1730 1150 c-30 -30 -27 -83 6 -109 26 -21 33 -21 800 -21 l773 0 27
23 c35 31 38 82 5 109 -22 17 -60 18 -807 18 -771 0 -784 0 -804 -20z"/>
<path d="M1760 883 c-51 -19 -68 -85 -30 -123 20 -20 33 -20 804 -20 747 0
785 1 807 18 33 27 30 78 -5 109 l-27 23 -767 -1 c-422 0 -774 -3 -782 -6z"/>
</g>
</svg>
