<?xml version="1.0" standalone="no"?>
<!DOCTYPE svg PUBLIC "-//W3C//DTD SVG 20010904//EN"
 "http://www.w3.org/TR/2001/REC-SVG-20010904/DTD/svg10.dtd">
<svg version="1.0" xmlns="http://www.w3.org/2000/svg"
 width="512.000000pt" height="512.000000pt" viewBox="0 0 512.000000 512.000000"
 preserveAspectRatio="xMidYMid meet">

<g transform="translate(0.000000,512.000000) scale(0.100000,-0.100000)"
fill="#000000" stroke="none">
<path d="M1115 4836 c-95 -31 -183 -94 -225 -161 -19 -31 -22 -32 -102 -38
-97 -6 -161 -28 -225 -77 -100 -75 -148 -171 -159 -318 -11 -145 11 -202 76
-202 55 0 66 24 72 154 6 137 27 191 96 243 55 41 98 53 200 53 46 0 92 4 102
10 10 5 32 34 49 64 33 60 92 106 156 126 28 8 138 11 375 8 l335 -3 67 -32
c115 -54 199 -147 237 -261 20 -58 21 -84 21 -437 l0 -375 -70 0 -70 0 0 198
c0 179 -2 200 -20 230 -37 60 -63 69 -238 75 -228 7 -365 39 -582 135 -108 47
-135 55 -205 60 -142 8 -239 -37 -284 -133 -20 -42 -21 -61 -21 -305 l0 -260
-75 0 -75 0 0 104 c0 101 -1 105 -26 125 -35 27 -57 26 -91 -3 -28 -24 -28
-26 -31 -158 -3 -124 -5 -135 -27 -158 -97 -102 -84 -289 26 -383 54 -47 121
-67 220 -67 l77 0 16 -72 c33 -147 145 -311 261 -385 l45 -28 0 -162 0 -163
-328 0 c-304 0 -333 -2 -388 -20 -150 -52 -260 -175 -293 -328 -7 -36 -11
-253 -11 -676 0 -597 1 -627 20 -687 27 -84 77 -151 151 -199 75 -49 142 -64
253 -58 79 4 95 9 179 51 l92 47 1003 0 1003 0 24 25 25 24 0 708 c0 590 -3
718 -15 771 -17 72 -40 121 -83 175 l-30 38 161 214 162 215 388 0 387 0 0
-54 c0 -46 -3 -56 -21 -61 -33 -11 -88 -65 -112 -109 -15 -30 -21 -59 -22
-107 0 -56 4 -73 30 -114 45 -73 101 -108 179 -113 80 -5 127 10 179 57 52 47
77 102 77 171 0 90 -54 178 -130 212 -28 12 -30 17 -30 65 l0 53 495 0 c547 0
547 0 585 62 20 32 20 48 20 831 l0 797 35 0 c26 0 45 9 73 34 l37 34 4 98 c4
119 -8 165 -52 196 l-32 23 -1247 0 c-1245 0 -1247 0 -1275 -21 -47 -34 -63
-79 -63 -172 0 -48 6 -97 14 -116 18 -44 61 -76 102 -76 l34 0 0 -785 c0 -852
-1 -829 55 -873 15 -12 42 -24 61 -28 19 -3 34 -8 34 -11 0 -6 -241 -322 -249
-327 -4 -3 -31 4 -61 14 -49 17 -88 19 -382 20 l-328 0 0 163 1 162 50 34
c131 89 222 236 263 422 6 26 8 26 105 31 86 4 106 9 152 35 154 86 187 282
71 415 l-31 35 -3 429 c-3 416 -4 431 -25 488 -65 173 -197 305 -366 367 -60
22 -74 23 -427 26 -278 2 -375 -1 -405 -11z m3855 -411 l0 -45 -1185 0 -1185
0 0 38 c0 21 3 42 7 45 3 4 537 7 1185 7 l1178 0 0 -45z m-150 -965 l0 -770
-881 0 -881 0 24 33 c117 155 138 187 138 206 0 55 -57 94 -103 69 -14 -7 -76
-79 -137 -160 l-110 -148 -60 0 -60 0 0 763 c0 420 3 767 7 770 3 4 469 7
1035 7 l1028 0 0 -770z m-3682 636 c171 -86 405 -144 624 -153 l138 -6 0 -433
c0 -277 -4 -452 -11 -486 -18 -86 -68 -177 -134 -243 -106 -106 -209 -145
-380 -145 -113 0 -194 17 -268 57 -111 61 -200 170 -237 291 -19 60 -20 94
-20 582 0 285 3 526 6 535 12 30 64 46 139 42 56 -3 84 -11 143 -41z m-438
-776 l0 -120 -70 0 c-118 0 -170 37 -170 120 0 86 46 120 163 120 l77 0 0
-120z m1525 106 c58 -25 82 -104 50 -165 -21 -41 -71 -61 -154 -61 l-71 0 0
120 0 120 70 0 c39 0 86 -6 105 -14z m-855 -941 c74 0 151 2 170 5 l35 5 0
-125 0 -125 -200 0 -200 0 -3 127 -3 128 33 -8 c18 -4 94 -7 168 -7z m2488
-217 c51 -49 11 -138 -63 -138 -61 0 -100 61 -73 116 26 56 89 65 136 22z
m-2951 -337 c185 -162 213 -179 272 -166 38 8 68 42 136 158 32 54 59 96 60
95 2 -2 28 -46 60 -98 67 -112 98 -147 136 -155 58 -13 86 4 271 166 l182 159
175 0 c97 0 182 -4 190 -9 12 -8 -10 -42 -104 -168 -65 -87 -120 -161 -124
-165 -3 -4 -31 2 -61 12 -75 26 -152 25 -220 -4 -30 -13 -327 -181 -660 -373
l-605 -350 -2 111 c-4 140 -7 152 -44 171 -34 18 -61 13 -89 -18 -19 -19 -20
-36 -20 -218 0 -183 1 -198 21 -223 14 -18 30 -26 52 -26 26 0 444 233 952
532 l30 17 53 -92 c28 -51 63 -111 77 -134 l26 -42 -95 -55 c-51 -31 -97 -63
-100 -72 -20 -52 12 -107 61 -107 40 0 612 328 670 385 82 80 110 198 74 305
l-21 63 131 175 c72 96 135 175 140 175 5 0 21 -24 36 -52 l28 -53 3 -678 3
-677 -156 0 -155 0 0 219 c0 206 -1 220 -21 245 -26 33 -79 36 -109 6 -19 -19
-20 -33 -20 -245 l0 -225 -592 0 c-326 0 -588 4 -582 8 5 5 74 46 154 91 80
46 154 91 164 101 24 24 25 74 1 100 -38 42 -63 31 -441 -188 l-359 -207 -91
0 c-83 0 -94 2 -139 30 -36 22 -57 45 -77 84 l-29 54 3 641 c3 629 3 642 24
687 28 60 85 116 148 145 48 22 63 24 226 24 l175 0 182 -159z m286 82 c-25
-43 -47 -80 -49 -82 -4 -4 -56 39 -139 113 l-50 45 142 1 142 0 -46 -77z m566
44 c-106 -92 -147 -127 -152 -127 -3 0 -20 26 -37 58 -18 31 -40 67 -48 80
l-14 22 143 0 144 -1 -36 -32z m319 -454 c48 -36 66 -69 66 -126 1 -80 -26
-109 -194 -206 -77 -44 -143 -81 -148 -81 -7 0 -152 250 -152 262 0 4 184 114
278 164 36 20 115 13 150 -13z"/>
<path d="M1172 3037 c-46 -49 -18 -108 73 -153 50 -24 63 -26 143 -22 73 3 96
9 135 31 78 46 96 91 56 141 -26 34 -68 34 -117 1 -27 -19 -50 -25 -88 -25
-38 0 -61 6 -88 25 -46 31 -86 32 -114 2z"/>
</g>
</svg>
