<?xml version="1.0" standalone="no"?>
<!DOCTYPE svg PUBLIC "-//W3C//DTD SVG 20010904//EN"
 "http://www.w3.org/TR/2001/REC-SVG-20010904/DTD/svg10.dtd">
<svg version="1.0" xmlns="http://www.w3.org/2000/svg"
 width="512.000000pt" height="512.000000pt" viewBox="0 0 512.000000 512.000000"
 preserveAspectRatio="xMidYMid meet">

<g transform="translate(0.000000,512.000000) scale(0.100000,-0.100000)"
fill="#000000" stroke="none">
<path d="M405 5026 c-68 -22 -118 -52 -168 -102 -58 -59 -93 -128 -107 -214
-14 -90 -14 -4210 0 -4300 21 -131 100 -236 220 -294 l65 -31 1780 0 1780 0
60 29 c79 39 149 110 188 194 l32 67 5 1098 5 1097 230 355 c127 195 234 354
238 355 4 0 23 -10 42 -23 l34 -23 -144 -220 c-118 -178 -145 -226 -145 -255
0 -54 46 -87 97 -68 22 7 67 68 199 272 94 144 174 270 177 280 12 34 -12 67
-85 113 -40 26 -77 50 -81 54 -5 4 17 48 48 96 67 107 89 175 82 256 -22 239
-294 353 -498 207 -16 -11 -67 -77 -112 -147 -45 -69 -83 -119 -84 -111 -2 8
-4 244 -5 524 l-3 510 -32 67 c-39 84 -109 155 -188 194 l-60 29 -1765 2
c-1406 1 -1773 -1 -1805 -11z m3531 -151 c62 -18 116 -63 143 -118 18 -38 21
-62 21 -185 l0 -142 -1910 0 -1910 0 0 138 c0 157 11 193 76 256 71 69 -50 65
1830 65 1469 1 1707 -1 1750 -14z m164 -1019 l0 -415 -470 -725 c-294 -455
-470 -735 -470 -751 0 -13 5 -34 10 -47 9 -19 3 -42 -33 -128 -43 -102 -46
-107 -133 -184 -49 -43 -94 -88 -101 -100 -9 -14 -12 -83 -13 -218 0 -185 1
-199 20 -218 11 -11 33 -20 49 -20 30 0 344 140 373 167 9 8 35 70 58 137 l40
122 83 82 c60 60 89 82 108 82 14 0 35 10 46 23 12 12 112 162 223 332 111
171 204 312 206 314 2 2 4 -329 4 -737 l0 -742 -1910 0 -1910 0 0 1720 0 1720
1910 0 1910 0 0 -414z m626 8 c53 -25 77 -73 72 -142 -4 -47 -13 -70 -53 -132
-26 -41 -51 -79 -55 -83 -11 -12 -261 153 -253 167 65 109 115 174 144 189 43
21 101 22 145 1z m-244 -421 l117 -75 -23 -36 c-13 -21 -142 -219 -288 -442
-145 -223 -360 -552 -477 -732 -117 -181 -217 -328 -222 -328 -20 0 -240 152
-237 164 2 7 225 355 497 774 304 470 498 759 505 755 6 -3 64 -39 128 -80z
m-1094 -1673 c34 -22 62 -43 62 -48 0 -4 -18 -25 -40 -47 -37 -37 -41 -38 -66
-25 -14 8 -36 24 -49 36 l-24 22 21 51 c12 28 25 51 28 51 4 0 35 -18 68 -40z
m-149 -236 l39 -25 -30 -91 -30 -90 -85 -39 c-47 -21 -87 -39 -89 -39 -2 0 -1
42 2 93 l6 92 66 62 c37 34 70 63 75 63 4 0 25 -12 46 -26z m861 -996 c0 -151
-14 -195 -78 -248 -77 -63 30 -60 -1832 -60 -1884 0 -1761 -4 -1835 67 -63 61
-75 99 -75 246 l0 127 1910 0 1910 0 0 -132z"/>
<path d="M1592 4707 c-29 -31 -29 -77 1 -105 l23 -22 582 0 c569 0 582 0 602
20 28 28 26 81 -3 108 l-23 22 -580 0 -581 0 -21 -23z"/>
<path d="M800 3980 c-12 -12 -20 -33 -20 -55 0 -22 8 -43 20 -55 20 -20 33
-20 1074 -20 l1055 0 20 26 c28 35 27 75 -2 102 l-23 22 -1052 0 c-1039 0
-1052 0 -1072 -20z"/>
<path d="M3199 3981 c-17 -13 -23 -29 -23 -56 0 -27 6 -43 23 -56 21 -17 43
-19 226 -19 183 0 205 2 226 19 17 13 23 29 23 56 0 27 -6 43 -23 56 -21 17
-43 19 -226 19 -183 0 -205 -2 -226 -19z"/>
<path d="M802 3467 c-28 -30 -29 -80 -2 -107 20 -20 33 -20 605 -20 572 0 585
0 605 20 30 30 27 83 -6 109 -26 21 -35 21 -604 21 l-577 0 -21 -23z"/>
<path d="M2216 3469 c-33 -26 -36 -79 -6 -109 20 -20 33 -20 723 -20 658 0
705 1 719 18 9 9 19 27 22 39 8 26 -16 78 -39 87 -9 3 -326 6 -704 6 -681 0
-689 0 -715 -21z"/>
<path d="M806 2959 c-32 -25 -35 -75 -7 -110 l19 -24 704 -3 c386 -1 713 0
726 3 61 15 82 86 37 130 l-24 25 -714 0 c-707 0 -715 0 -741 -21z"/>
<path d="M2523 2968 c-12 -6 -27 -24 -34 -41 -15 -36 2 -74 41 -94 34 -17 641
-18 673 -1 52 27 62 83 22 123 l-24 25 -328 -1 c-208 0 -336 -4 -350 -11z"/>
<path d="M802 2427 c-28 -30 -29 -80 -2 -107 20 -20 33 -20 1094 -20 l1075 0
20 26 c28 35 26 69 -4 99 l-24 25 -1069 0 -1069 0 -21 -23z"/>
<path d="M806 1919 c-32 -25 -35 -75 -7 -110 l19 -24 554 -3 c304 -2 568 0
586 3 70 13 95 82 47 130 l-24 25 -574 0 c-566 0 -575 0 -601 -21z"/>
<path d="M2215 1915 c-48 -47 -23 -117 47 -130 18 -3 133 -5 254 -3 202 3 224
5 243 22 32 29 29 88 -5 115 -25 20 -39 21 -271 21 l-244 0 -24 -25z"/>
<path d="M2369 1431 c-16 -16 -29 -36 -29 -45 0 -9 -11 -23 -26 -32 -21 -14
-42 -16 -134 -11 -126 7 -191 -7 -232 -50 -38 -41 -48 -66 -48 -118 0 -111 66
-167 134 -114 25 19 27 27 24 73 l-3 51 142 0 143 0 0 -38 c0 -78 48 -122 109
-101 43 15 51 46 51 201 0 152 -7 184 -47 202 -37 17 -52 14 -84 -18z"/>
<path d="M2059 521 c-17 -13 -23 -29 -23 -56 0 -63 25 -75 156 -75 102 0 110
1 133 25 30 30 32 64 4 99 -20 25 -23 26 -134 26 -95 0 -116 -3 -136 -19z"/>
</g>
</svg>
