<?xml version="1.0" standalone="no"?>
<!DOCTYPE svg PUBLIC "-//W3C//DTD SVG 20010904//EN"
 "http://www.w3.org/TR/2001/REC-SVG-20010904/DTD/svg10.dtd">
<svg version="1.0" xmlns="http://www.w3.org/2000/svg"
 width="512.000000pt" height="512.000000pt" viewBox="0 0 512.000000 512.000000"
 preserveAspectRatio="xMidYMid meet">

<g transform="translate(0.000000,512.000000) scale(0.100000,-0.100000)"
fill="#000000" stroke="none">
<path d="M381 5103 c-23 -11 -40 -31 -53 -59 -17 -41 -18 -73 -16 -582 3 -515
4 -541 22 -561 22 -25 73 -28 102 -7 18 14 19 34 24 543 l5 528 1568 3 1567 2
0 -169 0 -170 -43 -30 c-106 -72 -199 -205 -232 -331 -19 -71 -19 -210 0 -283
32 -125 112 -243 214 -317 l61 -45 0 -582 0 -583 -874 0 -874 0 -178 185
c-137 143 -186 187 -213 195 -22 6 -230 10 -518 10 l-483 0 0 388 c0 438 1
432 -70 432 -30 0 -43 -6 -59 -26 -20 -26 -21 -37 -21 -409 l0 -383 -112 -4
c-91 -3 -119 -7 -142 -23 -59 -39 -56 32 -56 -1407 0 -1309 0 -1323 20 -1356
40 -66 -35 -62 1323 -62 1234 0 1234 0 1261 21 33 26 36 79 6 109 -20 20 -33
20 -1240 20 l-1220 0 0 1275 0 1275 633 0 632 0 170 -180 c94 -98 184 -186
202 -195 27 -13 156 -15 1077 -15 l1047 0 -3 -105 -3 -106 -539 -224 c-297
-124 -550 -235 -563 -246 -31 -30 -39 -79 -18 -119 17 -34 35 -43 243 -129
l102 -43 0 -295 c0 -314 4 -344 51 -377 10 -7 179 -79 374 -161 l355 -147 0
-104 0 -104 -514 0 c-475 0 -515 -1 -534 -17 -12 -10 -24 -30 -28 -45 -5 -22
0 -33 24 -58 l30 -30 532 0 c578 0 580 0 617 56 15 23 19 55 23 182 l5 153
305 128 c168 70 315 133 328 140 13 7 32 27 42 44 19 30 20 53 20 333 l0 301
141 59 c175 72 201 88 213 137 8 31 6 45 -8 72 -10 19 -24 36 -30 39 -6 3
-236 99 -511 214 l-500 209 -5 154 c-5 168 -11 188 -63 219 -26 17 -51 20
-139 20 l-108 0 0 553 0 552 99 -3 c124 -5 191 9 289 58 237 119 359 389 294
649 -28 109 -70 181 -156 266 -120 119 -261 172 -433 162 l-91 -5 -4 171 c-3
192 -9 211 -73 241 -30 14 -194 16 -1647 16 -1487 0 -1616 -2 -1647 -17z
m3621 -573 c120 -37 205 -112 261 -228 42 -89 49 -209 17 -301 -38 -114 -117
-204 -225 -257 -56 -27 -68 -29 -175 -29 -104 0 -120 3 -173 27 -81 38 -170
126 -210 207 -30 62 -32 72 -32 176 0 103 2 114 31 176 93 196 304 292 506
229z m414 -2771 c252 -105 463 -194 467 -198 7 -7 -396 -181 -419 -181 -5 0
-119 56 -253 125 -143 74 -254 125 -271 125 -50 0 -85 -64 -60 -110 5 -10 95
-62 200 -116 104 -54 190 -101 190 -104 0 -3 -73 -36 -161 -73 l-162 -67 -473
197 c-260 108 -471 199 -468 202 9 10 919 389 935 390 8 1 222 -85 475 -190z
m-823 -615 c248 -104 311 -127 352 -127 40 0 84 14 218 70 l167 71 0 -43 c0
-84 28 -125 84 -125 52 0 66 30 66 135 l0 94 44 20 c96 42 86 65 86 -212 0
-187 -3 -246 -12 -250 -7 -3 -154 -64 -327 -136 -172 -72 -318 -131 -325 -131
-6 0 -158 61 -338 136 l-328 137 0 243 c0 134 3 244 6 244 3 0 141 -57 307
-126z"/>
<path d="M4010 4293 c-8 -3 -52 -42 -97 -86 l-83 -81 -40 39 c-47 46 -92 52
-122 16 -35 -44 -24 -78 45 -147 105 -106 132 -101 279 44 98 96 108 109 108
142 0 50 -47 88 -90 73z"/>
<path d="M1073 4755 c-62 -27 -73 -61 -73 -225 0 -165 11 -199 75 -226 51 -21
1859 -21 1910 0 64 27 75 61 75 226 0 165 -11 199 -75 226 -51 21 -1863 20
-1912 -1z m1837 -225 l0 -90 -880 0 -880 0 0 90 0 90 880 0 880 0 0 -90z"/>
<path d="M1025 3945 c-30 -30 -32 -64 -4 -99 l20 -26 375 0 c361 0 375 1 394
20 33 33 30 75 -6 108 -25 22 -26 22 -390 22 l-365 0 -24 -25z"/>
<path d="M1025 3545 c-14 -13 -25 -36 -25 -50 0 -14 11 -37 25 -50 l24 -25
965 0 c530 0 972 3 981 6 26 10 45 63 34 93 -21 53 27 50 -1012 51 l-968 0
-24 -25z"/>
<path d="M1025 3145 c-14 -13 -25 -36 -25 -50 0 -14 11 -37 25 -50 l24 -25
965 0 965 0 25 23 c36 32 39 74 6 107 -20 20 -33 20 -990 20 l-971 0 -24 -25z"/>
<path d="M1051 1839 c-113 -65 -268 -108 -392 -109 -48 0 -60 -4 -84 -27 l-27
-28 4 -230 c4 -220 5 -233 32 -310 70 -203 198 -345 394 -438 110 -52 174 -56
270 -15 195 82 338 226 411 417 40 105 51 190 51 396 l0 177 -28 27 c-24 25
-37 28 -112 34 -128 9 -220 33 -327 88 -53 27 -106 49 -117 49 -12 0 -45 -14
-75 -31z m106 -144 c59 -42 227 -94 356 -110 l47 -6 0 -130 c0 -158 -19 -257
-67 -353 -62 -123 -191 -237 -318 -281 -49 -17 -52 -17 -106 4 -78 30 -191
111 -241 174 -49 62 -101 171 -117 245 -6 29 -11 118 -11 197 l0 144 48 6 c94
11 217 46 296 84 97 47 87 44 113 26z"/>
</g>
</svg>
